# xmcd
#
# Track frame offsets:
#	150
#	25045
#	49332
#	75835
#	101005
#	124310
#	149217
#	172877
#	195580
#
# Disc length: 2906 seconds
#
# Revision: 10
# Processed by: cddbd v1.5.2PL0 Copyright (c) Steve Scherf et al.
# Submitted via: audiograbber 1.83.01
#
DISCID=750b5809
DTITLE=Simple Minds - Good news from the next world
DYEAR=1995
DGENRE=Rock
TTITLE0=She's a river
TTITLE1=Night music
TTITLE2=Hypnotised
TTITLE3=Great leap forward
TTITLE4=7 deadly sins
TTITLE5=And the band played on
TTITLE6=My life
TTITLE7=Criminal world
TTITLE8=This time
EXTD=
EXTT0=
EXTT1=
EXTT2=
EXTT3=
EXTT4=
EXTT5=
EXTT6=
EXTT7=
EXTT8=
PLAYORDER=
